<?xml version="1.0" encoding="UTF-8" standalone="no"?>
<!-- Created with Inkscape (http://www.inkscape.org/) -->

<svg
   xmlns:dc="http://purl.org/dc/elements/1.1/"
   xmlns:cc="http://creativecommons.org/ns#"
   xmlns:rdf="http://www.w3.org/1999/02/22-rdf-syntax-ns#"
   xmlns:svg="http://www.w3.org/2000/svg"
   xmlns="http://www.w3.org/2000/svg"
   xmlns:sodipodi="http://sodipodi.sourceforge.net/DTD/sodipodi-0.dtd"
   xmlns:inkscape="http://www.inkscape.org/namespaces/inkscape"
   width="257.00003mm"
   height="100.00001mm"
   viewBox="0 0 257.00003 100.00001"
   version="1.1"
   id="svg1449"
   inkscape:version="0.92.3 (2405546, 2018-03-11)"
   sodipodi:docname="design_by_tamara_1.svg"
   inkscape:export-filename="/home/sherlock/git/artwork/Marketing Materials/miscellaneous/GSoC Mugs/design_by_tamara_1.png"
   inkscape:export-xdpi="96"
   inkscape:export-ydpi="96">
  <defs
     id="defs1443">
    <linearGradient
       id="linearGradient48"
       spreadMethod="pad"
       gradientTransform="matrix(228.90625,0,0,-228.90625,186.4375,323.5625)"
       gradientUnits="userSpaceOnUse"
       y2="0"
       x2="1"
       y1="0"
       x1="0">
      <stop
         id="stop32"
         offset="0"
         style="stop-opacity:1;stop-color:#f8f8f9" />
      <stop
         id="stop34"
         offset="0.00561798"
         style="stop-opacity:1;stop-color:#f8f8f9" />
      <stop
         id="stop36"
         offset="0.196629"
         style="stop-opacity:1;stop-color:#cacaca" />
      <stop
         id="stop38"
         offset="0.3507757"
         style="stop-opacity:1;stop-color:#f8f8f9" />
      <stop
         id="stop40"
         offset="0.522472"
         style="stop-opacity:1;stop-color:#f8f8f9" />
      <stop
         id="stop42"
         offset="0.70113557"
         style="stop-opacity:1;stop-color:#f8f8f9" />
      <stop
         id="stop44"
         offset="0.865169"
         style="stop-opacity:1;stop-color:#cacaca" />
      <stop
         id="stop46"
         offset="1"
         style="stop-opacity:1;stop-color:#f8f8f9" />
    </linearGradient>
    <radialGradient
       id="radialGradient1646"
       spreadMethod="pad"
       gradientTransform="matrix(56.684921,0,0,-56.684921,429.19238,449.44434)"
       gradientUnits="userSpaceOnUse"
       r="1"
       cy="0"
       cx="0"
       fy="0"
       fx="0"
       fr="0">
      <stop
         id="stop1636"
         offset="0"
         style="stop-opacity:1;stop-color:#cacaca" />
      <stop
         id="stop1638"
         offset="0.12214657"
         style="stop-opacity:1;stop-color:#0d5f7b" />
      <stop
         id="stop1640"
         offset="0.567416"
         style="stop-opacity:1;stop-color:#094053" />
      <stop
         id="stop1642"
         offset="0.81230355"
         style="stop-opacity:1;stop-color:#094458" />
      <stop
         id="stop1644"
         offset="1"
         style="stop-opacity:1;stop-color:#0a465a" />
    </radialGradient>
    <linearGradient
       x1="0"
       y1="0"
       x2="1"
       y2="0"
       gradientUnits="userSpaceOnUse"
       gradientTransform="matrix(195.875,0,0,-195.875,203.625,436.65967)"
       spreadMethod="pad"
       id="linearGradient1420">
      <stop
         style="stop-opacity:1;stop-color:#052630"
         offset="0"
         id="stop1410" />
      <stop
         style="stop-opacity:1;stop-color:#094052"
         offset="0.117978"
         id="stop1412" />
      <stop
         style="stop-opacity:1;stop-color:#0a4e65"
         offset="0.657303"
         id="stop1414" />
      <stop
         style="stop-opacity:1;stop-color:#094052"
         offset="0.960674"
         id="stop1416" />
      <stop
         style="stop-opacity:1;stop-color:#05242f"
         offset="1"
         id="stop1418" />
    </linearGradient>
    <linearGradient
       x1="0"
       y1="0"
       x2="1"
       y2="0"
       gradientUnits="userSpaceOnUse"
       gradientTransform="matrix(178.90625,0,0,-178.90625,211.4375,551.59375)"
       spreadMethod="pad"
       id="linearGradient1568">
      <stop
         style="stop-opacity:1;stop-color:#094052"
         offset="0"
         id="stop1562" />
      <stop
         style="stop-opacity:1;stop-color:#0b4d62"
         offset="0.219101"
         id="stop1564" />
      <stop
         style="stop-opacity:1;stop-color:#0e617d"
         offset="1"
         id="stop1566" />
    </linearGradient>
  </defs>
  <sodipodi:namedview
     id="base"
     pagecolor="#ffffff"
     bordercolor="#666666"
     borderopacity="1.0"
     inkscape:pageopacity="0.0"
     inkscape:pageshadow="2"
     inkscape:zoom="0.49447692"
     inkscape:cx="533.4162"
     inkscape:cy="-83.110674"
     inkscape:document-units="mm"
     inkscape:current-layer="layer1"
     showgrid="false"
     inkscape:window-width="2560"
     inkscape:window-height="1372"
     inkscape:window-x="0"
     inkscape:window-y="32"
     inkscape:window-maximized="1" />
  <metadata
     id="metadata1446">
    <rdf:RDF>
      <cc:Work
         rdf:about="">
        <dc:format>image/svg+xml</dc:format>
        <dc:type
           rdf:resource="http://purl.org/dc/dcmitype/StillImage" />
        <dc:title></dc:title>
      </cc:Work>
    </rdf:RDF>
  </metadata>
  <g
     inkscape:label="Layer 1"
     inkscape:groupmode="layer"
     id="layer1"
     transform="translate(243.09466,434.42921)">
    <path
       style="opacity:1;fill:#0a4d64;fill-opacity:1;fill-rule:nonzero;stroke:none;stroke-width:0.16250849;stroke-linecap:round;stroke-linejoin:round;stroke-miterlimit:4;stroke-dasharray:none;stroke-dashoffset:0;stroke-opacity:1;paint-order:stroke markers fill"
       d="M -114.59466,-434.42921 V -334.4292 H 13.905358 v -100.00001 z"
       id="path1201"
       inkscape:connector-curvature="0" />
    <g
       id="g1719"
       transform="translate(-87.380943,-255.10574)">
      <text
         id="text4316"
         y="-144.84634"
         x="61.38483"
         style="font-style:normal;font-weight:normal;font-size:8.37663364px;line-height:0%;font-family:sans-serif;text-align:end;letter-spacing:0px;word-spacing:0px;text-anchor:end;fill:#ffffff;fill-opacity:1;stroke:none;stroke-width:1px;stroke-linecap:butt;stroke-linejoin:miter;stroke-opacity:1"
         xml:space="preserve"><tspan
           style="font-style:normal;font-variant:normal;font-weight:bold;font-stretch:condensed;font-size:5.41766548px;line-height:1.25;font-family:'Open Sans Condensed';-inkscape-font-specification:'Open Sans Condensed, Bold Condensed';stroke-width:1px"
           y="-144.84634"
           x="61.38483"
           id="tspan4318"
           sodipodi:role="line">roses are red</tspan><tspan
           style="font-style:normal;font-variant:normal;font-weight:bold;font-stretch:condensed;font-size:5.41766548px;line-height:1.25;font-family:'Open Sans Condensed';-inkscape-font-specification:'Open Sans Condensed, Bold Condensed';stroke-width:1px"
           id="tspan4320"
           y="-138.07426"
           x="61.38483"
           sodipodi:role="line">violets are blue,</tspan><tspan
           style="font-style:normal;font-variant:normal;font-weight:bold;font-stretch:condensed;font-size:5.41766548px;line-height:1.25;font-family:'Open Sans Condensed';-inkscape-font-specification:'Open Sans Condensed, Bold Condensed';stroke-width:1px"
           id="tspan4322"
           y="-131.30219"
           x="61.38483"
           sodipodi:role="line"> are great,</tspan><tspan
           style="font-style:normal;font-variant:normal;font-weight:bold;font-stretch:condensed;font-size:5.41766548px;line-height:1.25;font-family:'Open Sans Condensed';-inkscape-font-specification:'Open Sans Condensed, Bold Condensed';stroke-width:1px"
           id="tspan4324"
           y="-124.5301"
           x="61.384827"
           sodipodi:role="line">and so are YOU!</tspan><tspan
           style="font-style:normal;font-variant:normal;font-weight:bold;font-stretch:condensed;font-size:5.417665px;line-height:1.25;font-family:'Open Sans Condensed';-inkscape-font-specification:'Open Sans Condensed, Bold Condensed';stroke-width:1px"
           id="tspan4326"
           y="-117.75802"
           x="62.728664"
           sodipodi:role="line"> </tspan><tspan
           style="font-style:normal;font-variant:normal;font-weight:bold;font-stretch:condensed;font-size:5.41766548px;line-height:1.25;font-family:'Open Sans Condensed';-inkscape-font-specification:'Open Sans Condensed, Bold Condensed';stroke-width:1px"
           id="tspan4330"
           y="-110.98594"
           x="61.38483"
           sodipodi:role="line">thank you, mentors!</tspan></text>
      <g
         transform="matrix(0.45404105,0,0,0.45404105,21.054135,-202.34875)"
         id="g4371"
         style="stroke-width:1.43255639">
        <path
           d="m 5.5818194,148.05197 c -1.3949118,0 -2.1621886,1.1793 -2.1621886,1.99463 v 1.04665 c 0,1.20066 0.9809687,1.94462 1.8906829,1.94462 h 3.1933724 c 0.4023122,0 0.4865417,0.26339 0.4865417,0.48561 v 0.67545 c 0,0.0717 -0.014516,0.72039 -0.4865417,0.72039 H 4.1483054 c -0.4328141,0 -0.7455563,0.30112 -0.7455563,0.71318 v 0.1867 c 0,0.41048 0.3127422,0.70971 0.7455563,0.70971 h 4.5921193 c 1.2003596,0 1.9749123,-0.83512 1.9749123,-2.12885 v -1.12932 c 0,-1.21481 -0.8728503,-1.75794 -1.7393924,-1.75794 H 5.8338268 c -0.4730292,0 -0.6873842,-0.35486 -0.6873842,-0.60568 v -0.62359 c 0,-0.39258 0.2624375,-0.62014 0.7213448,-0.62014 h 3.4781397 c 0.4265237,0 0.7474379,-0.30645 0.7474379,-0.7116 v -0.18638 c 0,-0.40672 -0.3262547,-0.71349 -0.7618824,-0.71349 H 5.5820165 Z"
           id="path4337"
           inkscape:connector-curvature="0"
           style="fill:#73ba25;stroke-width:1.43255639" />
        <path
           d="m 18.63918,148.05197 c -0.412366,0 -0.744588,0.33505 -0.744588,0.74744 v 5.34731 c 0,0.42841 -0.349517,0.77259 -0.772582,0.77259 h -2.427422 c -0.424624,0 -0.772258,-0.34418 -0.772258,-0.77259 v -5.34731 c 0,-0.41239 -0.335055,-0.74744 -0.747116,-0.74744 h -0.234785 c -0.418352,0 -0.747438,0.33004 -0.747438,0.74744 v 5.54982 c 0,1.29214 1.016793,2.2294 2.417386,2.2294 h 2.595881 c 1.398693,0 2.414877,-0.93696 2.414877,-2.2294 v -5.54982 c 0,-0.4174 -0.327832,-0.74744 -0.745557,-0.74744 h -0.236362 z"
           id="path4339"
           inkscape:connector-curvature="0"
           style="fill:#73ba25;stroke-width:1.43255639" />
        <path
           d="m 23.286138,148.05197 c -1.394284,0 -2.163801,1.1793 -2.163801,1.99463 v 1.04665 c 0,1.20066 0.98285,1.94462 1.893192,1.94462 h 3.192476 c 0.402957,0 0.487509,0.26339 0.487509,0.48561 v 0.67545 c 0,0.0717 -0.01452,0.72039 -0.487509,0.72039 h -4.357352 c -0.430914,0 -0.745538,0.30112 -0.745538,0.71318 v 0.1867 c 0,0.41048 0.314624,0.70971 0.745538,0.70971 h 4.593732 c 1.200682,0 1.978676,-0.83512 1.978676,-2.12885 v -1.12932 c 0,-1.21481 -0.875359,-1.75794 -1.741919,-1.75794 h -3.142118 c -0.474302,0 -0.68803,-0.35486 -0.68803,-0.60568 v -0.62359 c 0,-0.39258 0.262456,-0.62014 0.721345,-0.62014 h 3.480111 c 0.425574,0 0.745234,-0.30645 0.745234,-0.7116 v -0.18638 c 0,-0.40672 -0.32595,-0.71349 -0.76346,-0.71349 h -3.747853 z"
           id="path4341"
           inkscape:connector-curvature="0"
           style="fill:#73ba25;stroke-width:1.43255639" />
        <path
           d="m 30.62844,148.05197 c -0.413943,0 -0.726686,0.30677 -0.726686,0.71349 v 7.05342 c 0,0.40484 0.305502,0.70971 0.710341,0.70971 h 5.620795 c 0.432814,0 0.745556,-0.29923 0.745556,-0.70971 v -0.18671 c 0,-0.41206 -0.312742,-0.71317 -0.745556,-0.71317 h -4.60341 v -1.7957 h 3.373122 c 0.431864,0 0.745556,-0.30299 0.745556,-0.71349 v -0.18638 c 0,-0.41239 -0.313692,-0.7116 -0.745556,-0.7116 H 31.62948 v -1.84946 h 4.369538 c 0.431237,0 0.745539,-0.29733 0.745539,-0.7116 v -0.18638 c 0,-0.41238 -0.314302,-0.7135 -0.745539,-0.7135 h -5.370614 z"
           id="path4343"
           inkscape:connector-curvature="0"
           style="fill:#73ba25;stroke-width:1.43255639" />
        <g
           transform="matrix(0.31431931,0,0,0.31431931,-171.55814,24.308117)"
           id="g4345"
           style="fill:#73ba25;stroke-width:1.43255639">
          <path
             d="m 491.25,404.37 c -2.241,0 -4.065,1.744 -4.065,3.894 v 8.461 c 0,2.184 1.765,3.963 3.929,3.963 h 5.473 c 2.164,0 3.929,-1.779 3.929,-3.963 v -8.461 c 0,-2.149 -1.825,-3.894 -4.065,-3.894 z m -1.184,12.019 v -7.726 c 0,-0.906 0.744,-1.647 1.654,-1.647 h 4.264 c 0.89,0 1.648,0.758 1.648,1.647 v 7.726 c 0,0.912 -0.738,1.653 -1.648,1.653 h -4.296 c -0.912,0 -1.622,-0.725 -1.622,-1.653 z"
             id="path4347"
             inkscape:connector-curvature="0"
             style="stroke-width:1.43255639" />
          <path
             d="m 512.91,404.27 c -1.578,0 -2.768,0.564 -3.723,1.026 -0.582,0.279 -1.086,0.52 -1.477,0.52 -0.177,0 -0.328,-0.08 -0.408,-0.211 l -0.364,-0.696 c -0.091,-0.183 -0.456,-0.541 -0.907,-0.541 h -0.541 c -0.52,0 -0.936,0.467 -0.936,1.037 v 21.461 c 0,0.673 0.531,1.203 1.203,1.203 h 0.468 c 0.667,0 1.209,-0.536 1.209,-1.203 v -7.121 c 0,-0.211 0.137,-0.439 0.276,-0.439 0.391,0 0.895,0.229 1.477,0.496 0.955,0.439 2.145,0.98 3.723,0.98 h 0.505 c 2.794,0 4.532,-1.597 4.532,-4.162 v -8.192 c 0,-2.526 -1.775,-4.157 -4.532,-4.157 h -0.505 z m -5.475,11.952 v -7.39 c 0,-1.021 0.798,-1.818 1.818,-1.818 h 3.997 c 1.021,0 1.818,0.798 1.818,1.818 v 7.39 c 0,1.003 -0.818,1.818 -1.818,1.818 h -3.997 c -1.001,0 -1.818,-0.815 -1.818,-1.818 z"
             id="path4349"
             inkscape:connector-curvature="0"
             style="stroke-width:1.43255639" />
          <path
             d="m 526.04,404.37 c -2.241,0 -4.06,1.744 -4.06,3.894 v 8.398 c 0,2.178 1.768,4.025 3.854,4.025 h 5.647 c 0.698,0 1.203,-0.484 1.203,-1.141 v -0.37 c 0,-0.661 -0.505,-1.135 -1.203,-1.135 h -4.639 c -1.3,0 -1.986,-0.639 -1.986,-1.854 v -2.457 h 8.369 c 1.346,0 2.142,-0.821 2.142,-2.212 v -3.256 c 0,-2.149 -1.822,-3.894 -4.054,-3.894 h -5.273 z m -1.183,4.265 c 0,-0.907 0.713,-1.619 1.621,-1.619 h 4.396 c 0.906,0 1.613,0.712 1.613,1.619 v 2.622 h -7.631 c 10e-4,-0.342 10e-4,-2.622 10e-4,-2.622 z"
             id="path4351"
             inkscape:connector-curvature="0"
             style="stroke-width:1.43255639" />
          <path
             d="m 547,404.27 c -1.573,0 -2.76,0.564 -3.718,1.021 -0.596,0.28 -1.105,0.525 -1.521,0.525 -0.183,0 -0.257,-0.023 -0.399,-0.269 l -0.331,-0.604 c -0.19,-0.382 -0.513,-0.575 -0.949,-0.575 h -0.465 c -0.562,0 -0.972,0.438 -0.972,1.037 v 14.077 c 0,0.667 0.527,1.203 1.206,1.203 h 0.465 c 0.667,0 1.211,-0.542 1.211,-1.203 v -10.65 c 0,-0.998 0.815,-1.818 1.813,-1.818 h 3.999 c 1.001,0 1.816,0.82 1.816,1.818 v 10.65 c 0,0.667 0.53,1.203 1.203,1.203 h 0.47 c 0.667,0 1.209,-0.542 1.209,-1.203 v -11.055 c 0,-2.526 -1.776,-4.157 -4.535,-4.157 z"
             id="path4353"
             inkscape:connector-curvature="0"
             style="stroke-width:1.43255639" />
        </g>
        <g
           transform="matrix(0.31431931,0,0,0.31431931,-171.55814,24.308117)"
           id="g4355"
           style="fill:#73ba25;stroke-width:1.43255639">
          <path
             d="m 667.46,415.23 c 1.218,0 2.188,0.99 2.188,2.229 0,1.257 -0.971,2.237 -2.198,2.237 -1.218,0 -2.208,-0.98 -2.208,-2.237 0,-1.238 0.99,-2.229 2.208,-2.229 z m -0.01,0.346 c -0.98,0 -1.782,0.842 -1.782,1.882 0,1.06 0.802,1.891 1.792,1.891 0.99,0.011 1.782,-0.831 1.782,-1.881 0,-1.05 -0.792,-1.892 -1.782,-1.892 z m -0.416,3.179 h -0.396 v -2.485 c 0.208,-0.03 0.406,-0.06 0.703,-0.06 0.377,0 0.624,0.079 0.772,0.188 0.149,0.108 0.229,0.276 0.229,0.515 0,0.326 -0.218,0.524 -0.485,0.604 v 0.021 c 0.218,0.039 0.366,0.237 0.416,0.604 0.06,0.387 0.118,0.535 0.158,0.614 h -0.416 c -0.06,-0.079 -0.119,-0.307 -0.168,-0.634 -0.06,-0.316 -0.218,-0.436 -0.535,-0.436 h -0.277 v 1.069 z m 0,-1.377 h 0.287 c 0.327,0 0.604,-0.118 0.604,-0.426 0,-0.218 -0.158,-0.436 -0.604,-0.436 -0.129,0 -0.218,0.01 -0.287,0.021 z"
             id="path4357"
             inkscape:connector-curvature="0"
             style="fill:#73ba25;stroke-width:1.43255639" />
        </g>
      </g>
    </g>
    <path
       inkscape:connector-curvature="0"
       id="path1199"
       d="m -243.09466,-434.42921 v 100.00001 h 128.5 v -100.00001 z"
       style="opacity:1;fill:#0a4d64;fill-opacity:1;fill-rule:nonzero;stroke:none;stroke-width:0.16250849;stroke-linecap:round;stroke-linejoin:round;stroke-miterlimit:4;stroke-dasharray:none;stroke-dashoffset:0;stroke-opacity:1;paint-order:stroke markers fill" />
    <g
       id="g1660"
       transform="translate(-37.831849,-254.37709)">
      <path
         style="fill:none;fill-rule:evenodd;stroke:#000000;stroke-width:0.31553599px;stroke-linecap:butt;stroke-linejoin:miter;stroke-opacity:1"
         d="m -125.48372,-134.89988 c 0.54434,0.35514 0.86787,0.96457 1.22774,1.42726"
         id="path1620"
         inkscape:connector-curvature="0" />
      <g
         style="stroke-width:1.43255806"
         transform="matrix(0.13986585,0,0,0.13986585,-164.79346,-145.45849)"
         id="g1646">
        <path
           id="path1622"
           d="m 290.85,35.7 c -3.3113,-0.11926 -6.4507,1.0506 -8.8499,3.3008 -2.3993,2.2502 -3.8147,5.2984 -3.9147,8.5992 -0.2297,6.8208 5.1108,12.559 11.916,12.81 3.3095,0.1 6.4647,-1.0698 8.878,-3.32 2.4098,-2.2607 3.7953,-5.3107 3.9006,-8.5992 0.2297,-6.819 -5.109,-12.549 -11.93,-12.791 z m 2.0205,13.512 c -3.0307,0 -5.4791,-1.6398 -5.4791,-3.6498 0,-2.0292 2.4484,-3.6603 5.4791,-3.6603 3.0306,0 5.486,1.6311 5.486,3.6603 0,2.0099 -2.4571,3.6498 -5.486,3.6498 z m 28.798,14.729 c 0.0887,-0.0692 0.29521,-0.25105 0.2683,-0.41918 -0.68471,-4.2787 -7.0592,-25.029 -11.884,-30.019 -1.3294,-1.3592 -2.394,-2.6992 -4.5495,-3.9602 -17.454,-10.171 -58.863,-16.309 -60.803,-16.59 0,0 -0.19473,-0.0406 -0.3297,0.0912 -0.1048,0.10237 -0.1246,0.29991 -0.1246,0.29991 0,0 -0.1596,8.5799 -0.1841,9.5392 -4.2286,-1.4206 -34.972,-11.351 -63.791,-12.351 -24.44,-0.85939 -60.033,-4.0198 -107.2,24.98 l -1.3943,0.86815 c -22.19,13.841 -37.51,30.91 -45.518,50.739 -2.5116,6.2402 -5.8895,20.32 -2.5414,33.569 1.4417,5.7912 4.1304,11.611 7.7556,16.819 8.194,11.77 21.944,19.58 36.749,20.899 20.904,1.8696 36.733,-7.5188 42.363,-25.099 3.8708,-12.13 0,-29.928 -14.839,-39.008 -12.07,-7.3908 -25.049,-5.7106 -32.578,-0.7296 -6.5313,4.3303 -10.23,11.06 -10.165,18.451 0.1508,13.11 11.444,20.078 19.564,20.099 2.3589,0 4.7284,-0.41041 7.3995,-1.2803 0.9506,-0.28939 1.845,-0.64893 2.8307,-1.2593 l 0.3087,-0.18065 0.1947,-0.12978 -0.065,0.0386 c 1.8503,-1.261 2.964,-3.3113 2.964,-5.5106 0,-0.59981 -0.084,-1.2084 -0.2561,-1.8205 -0.9593,-3.32 -4.239,-5.3282 -7.638,-4.7091 l -0.4595,0.10874 -0.6209,0.18942 -0.9015,0.31043 c -1.8696,0.45951 -3.2692,0.49985 -3.5691,0.51038 -0.9506,-0.0614 -5.6246,-1.461 -5.6246,-6.5805 v -0.0702 c 0,-1.8801 0.7542,-3.199 1.1698,-3.9199 1.454,-2.28 5.4352,-4.5179 10.814,-4.0497 7.0593,0.61034 12.149,4.2303 15.52,11.06 3.1289,6.349 2.3098,14.159 -2.1099,19.88 -4.3899,5.6685 -12.205,8.0783 -22.598,6.9593 -10.481,-1.1593 -19.34,-7.1908 -24.303,-16.579 -4.8565,-9.1779 -5.1213,-20.059 -0.6858,-28.418 10.609,-20.029 30.649,-19.82 41.637,-17.921 16.26,2.8202 34.758,17.819 41.319,35.139 1.0593,2.7606 1.5995,4.9494 2.0713,6.9505 l 0.7085,2.9903 18.37,8.9692 c 0.39458,0.19266 0.52796,0.25778 0.6858,0.14034 0.18941,-0.14093 0.081,-0.52966 0.081,-0.52966 -0.114,-0.4104 -0.3806,-0.78924 -0.805,-5.9298 -0.3491,-4.5618 -1.0594,-17.051 5.2282,-23.24 2.4414,-2.4186 6.1613,-4.5776 9.099,-5.2686 12.04,-2.9412 26.159,-0.912 39.507,14.539 6.9102,7.98 10.279,11.619 11.97,13.249 0,0 0.38494,0.36349 0.5893,0.53142 0.22331,0.1835 0.36878,0.33789 0.6945,0.51914 0.55786,0.31042 22.954,10.621 22.954,10.621 0,0 0.26534,0.13182 0.4612,-0.11049 0.19362,-0.23953 0.01,-0.4788 0.01,-0.4788 -0.1491,-0.17013 -14.199,-18.328 -11.698,-33.279 1.9696,-11.909 11.447,-10.83 24.558,-9.3498 4.2794,0.49984 9.1516,1.0593 14.196,1.1716 14.084,0.0895 29.254,-2.5115 38.604,-6.6015 6.049,-2.629 9.9093,-4.3794 12.328,-6.5787 0.8699,-0.72084 1.3207,-1.8907 1.7907,-3.1499 l 0.3297,-0.83133 c 0.3911,-1.0207 0.9664,-3.171 1.219,-4.3496 0.1017,-0.51914 0.2208,-1.0274 -0.2087,-1.3592 -0.39265,-0.30337 -1.2944,0.24027 -1.2944,0.24027 -4.1058,2.4712 -14.369,7.1505 -23.965,7.3504 -11.914,0.24028 -36.054,-12.061 -38.555,-13.36 -1.6739,-3.9857 -3.3458,-7.9724 -5.0438,-11.948 17.27,11.379 31.594,17.668 42.559,18.638 12.207,1.0874 21.723,-5.5724 25.853,-8.3433 0.54064,-0.35944 1.0799,-0.76184 1.5756,-1.1486 z m -48.992,-16.369 c 0.1753,-4.7302 2.1554,-9.1201 5.6141,-12.34 3.4603,-3.2306 7.9747,-4.9003 12.708,-4.7494 9.7602,0.34902 17.43,8.5886 17.095,18.338 -0.1841,4.7302 -2.1642,9.1201 -5.6141,12.33 -3.4603,3.2499 -7.9642,4.9196 -12.719,4.76 -9.7497,-0.35954 -17.411,-8.5799 -17.084,-18.338 z"
           inkscape:connector-curvature="0"
           style="clip-rule:evenodd;fill:#73ba25;fill-rule:evenodd;stroke-width:1.43255806" />
        <path
           d="m 143.98,150.01 c -7.7836,0 -12.065,6.5805 -12.065,11.13 v 5.8403 c 0,6.6997 5.4738,10.851 10.55,10.851 h 17.819 c 2.2449,0 2.7149,1.4697 2.7149,2.7097 v 3.769 c 0,0.39988 -0.081,4.0198 -2.7149,4.0198 h -24.303 c -2.4151,0 -4.1602,1.6802 -4.1602,3.9795 v 1.0418 c 0,2.2905 1.7451,3.9602 4.1602,3.9602 h 25.624 c 6.698,0 11.02,-4.66 11.02,-11.879 v -6.3016 c 0,-6.7786 -4.8705,-9.8093 -9.7058,-9.8093 h -17.533 c -2.6395,0 -3.8356,-1.9801 -3.8356,-3.3797 v -3.4796 c 0,-2.1906 1.4644,-3.4604 4.0251,-3.4604 h 19.408 c 2.38,0 4.1707,-1.71 4.1707,-3.9707 v -1.04 c 0,-2.2695 -1.8205,-3.9813 -4.2513,-3.9813 h -20.922 z"
           id="path1624"
           inkscape:connector-curvature="0"
           style="fill:#73ba25;stroke-width:1.43255806" />
        <path
           d="m 216.84,150.01 c -2.301,0 -4.1548,1.8696 -4.1548,4.1707 v 29.838 c 0,2.3905 -1.9503,4.311 -4.311,4.311 h -13.545 c -2.3694,0 -4.3092,-1.9205 -4.3092,-4.311 v -29.838 c 0,-2.3011 -1.8696,-4.1707 -4.1689,-4.1707 h -1.3101 c -2.3344,0 -4.1707,1.8416 -4.1707,4.1707 v 30.968 c 0,7.2101 5.6737,12.44 13.489,12.44 h 14.485 c 7.8047,0 13.475,-5.2282 13.475,-12.44 v -30.968 c 0,-2.3291 -1.8293,-4.1707 -4.1602,-4.1707 h -1.3189 z"
           id="path1626"
           inkscape:connector-curvature="0"
           style="fill:#73ba25;stroke-width:1.43255806" />
        <path
           d="m 242.77,150.01 c -7.7801,0 -12.074,6.5805 -12.074,11.13 v 5.8403 c 0,6.6997 5.4843,10.851 10.564,10.851 h 17.814 c 2.2485,0 2.7203,1.4697 2.7203,2.7097 v 3.769 c 0,0.39988 -0.081,4.0198 -2.7203,4.0198 H 234.76 c -2.4045,0 -4.1601,1.6802 -4.1601,3.9795 v 1.0418 c 0,2.2905 1.7556,3.9602 4.1601,3.9602 h 25.633 c 6.6998,0 11.041,-4.66 11.041,-11.879 v -6.3016 c 0,-6.7786 -4.8845,-9.8093 -9.7199,-9.8093 h -17.533 c -2.6466,0 -3.8392,-1.9801 -3.8392,-3.3797 v -3.4796 c 0,-2.1906 1.4645,-3.4604 4.0251,-3.4604 h 19.419 c 2.3747,0 4.1584,-1.71 4.1584,-3.9707 v -1.04 c 0,-2.2695 -1.8188,-3.9813 -4.2601,-3.9813 h -20.913 z"
           id="path1628"
           inkscape:connector-curvature="0"
           style="fill:#73ba25;stroke-width:1.43255806" />
        <path
           d="m 283.74,150.01 c -2.3098,0 -4.0549,1.7118 -4.0549,3.9813 v 39.358 c 0,2.259 1.7047,3.9602 3.9637,3.9602 h 31.364 c 2.4151,0 4.1602,-1.6697 4.1602,-3.9602 v -1.0418 c 0,-2.2993 -1.7451,-3.9795 -4.1602,-3.9795 h -25.687 v -10.02 h 18.822 c 2.4098,0 4.1602,-1.6907 4.1602,-3.9813 v -1.04 c 0,-2.3011 -1.7504,-3.9707 -4.1602,-3.9707 h -18.822 v -10.32 h 24.382 c 2.4063,0 4.1601,-1.6591 4.1601,-3.9707 v -1.04 c 0,-2.3011 -1.7538,-3.9813 -4.1601,-3.9813 h -29.968 z"
           id="path1630"
           inkscape:connector-curvature="0"
           style="fill:#73ba25;stroke-width:1.43255806" />
        <g
           transform="matrix(1.7539,0,0,1.7539,-844.46,-540.48)"
           id="g1640"
           style="fill:#73ba25;stroke-width:1.43255806">
          <path
             style="stroke-width:1.43255806"
             d="m 491.25,404.37 c -2.241,0 -4.065,1.744 -4.065,3.894 v 8.461 c 0,2.184 1.765,3.963 3.929,3.963 h 5.473 c 2.164,0 3.929,-1.779 3.929,-3.963 v -8.461 c 0,-2.149 -1.825,-3.894 -4.065,-3.894 z m -1.184,12.019 v -7.726 c 0,-0.906 0.744,-1.647 1.654,-1.647 h 4.264 c 0.89,0 1.648,0.758 1.648,1.647 v 7.726 c 0,0.912 -0.738,1.653 -1.648,1.653 h -4.296 c -0.912,0 -1.622,-0.725 -1.622,-1.653 z"
             id="path1632"
             inkscape:connector-curvature="0" />
          <path
             style="stroke-width:1.43255806"
             d="m 512.91,404.27 c -1.578,0 -2.768,0.564 -3.723,1.026 -0.582,0.279 -1.086,0.52 -1.477,0.52 -0.177,0 -0.328,-0.08 -0.408,-0.211 l -0.364,-0.696 c -0.091,-0.183 -0.456,-0.541 -0.907,-0.541 h -0.541 c -0.52,0 -0.936,0.467 -0.936,1.037 v 21.461 c 0,0.673 0.531,1.203 1.203,1.203 h 0.468 c 0.667,0 1.209,-0.536 1.209,-1.203 v -7.121 c 0,-0.211 0.137,-0.439 0.276,-0.439 0.391,0 0.895,0.229 1.477,0.496 0.955,0.439 2.145,0.98 3.723,0.98 h 0.505 c 2.794,0 4.532,-1.597 4.532,-4.162 v -8.192 c 0,-2.526 -1.775,-4.157 -4.532,-4.157 h -0.505 z m -5.475,11.952 v -7.39 c 0,-1.021 0.798,-1.818 1.818,-1.818 h 3.997 c 1.021,0 1.818,0.798 1.818,1.818 v 7.39 c 0,1.003 -0.818,1.818 -1.818,1.818 h -3.997 c -1.001,0 -1.818,-0.815 -1.818,-1.818 z"
             id="path1634"
             inkscape:connector-curvature="0" />
          <path
             style="stroke-width:1.43255806"
             d="m 526.04,404.37 c -2.241,0 -4.06,1.744 -4.06,3.894 v 8.398 c 0,2.178 1.768,4.025 3.854,4.025 h 5.647 c 0.698,0 1.203,-0.484 1.203,-1.141 v -0.37 c 0,-0.661 -0.505,-1.135 -1.203,-1.135 h -4.639 c -1.3,0 -1.986,-0.639 -1.986,-1.854 v -2.457 h 8.369 c 1.346,0 2.142,-0.821 2.142,-2.212 v -3.256 c 0,-2.149 -1.822,-3.894 -4.054,-3.894 h -5.273 z m -1.183,4.265 c 0,-0.907 0.713,-1.619 1.621,-1.619 h 4.396 c 0.906,0 1.613,0.712 1.613,1.619 v 2.622 h -7.631 c 10e-4,-0.342 10e-4,-2.622 10e-4,-2.622 z"
             id="path1636"
             inkscape:connector-curvature="0" />
          <path
             style="stroke-width:1.43255806"
             d="m 547,404.27 c -1.573,0 -2.76,0.564 -3.718,1.021 -0.596,0.28 -1.105,0.525 -1.521,0.525 -0.183,0 -0.257,-0.023 -0.399,-0.269 l -0.331,-0.604 c -0.19,-0.382 -0.513,-0.575 -0.949,-0.575 h -0.465 c -0.562,0 -0.972,0.438 -0.972,1.037 v 14.077 c 0,0.667 0.527,1.203 1.206,1.203 h 0.465 c 0.667,0 1.211,-0.542 1.211,-1.203 v -10.65 c 0,-0.998 0.815,-1.818 1.813,-1.818 h 3.999 c 1.001,0 1.816,0.82 1.816,1.818 v 10.65 c 0,0.667 0.53,1.203 1.203,1.203 h 0.47 c 0.667,0 1.209,-0.542 1.209,-1.203 v -11.055 c 0,-2.526 -1.776,-4.157 -4.535,-4.157 z"
             id="path1638"
             inkscape:connector-curvature="0" />
        </g>
        <g
           transform="matrix(1.7539,0,0,1.7539,-844.46,-540.48)"
           id="g1644"
           style="fill:#73ba25;stroke-width:1.43255806">
          <path
             d="m 667.46,415.23 c 1.218,0 2.188,0.99 2.188,2.229 0,1.257 -0.971,2.237 -2.198,2.237 -1.218,0 -2.208,-0.98 -2.208,-2.237 0,-1.238 0.99,-2.229 2.208,-2.229 z m -0.01,0.346 c -0.98,0 -1.782,0.842 -1.782,1.882 0,1.06 0.802,1.891 1.792,1.891 0.99,0.011 1.782,-0.831 1.782,-1.881 0,-1.05 -0.792,-1.892 -1.782,-1.892 z m -0.416,3.179 h -0.396 v -2.485 c 0.208,-0.03 0.406,-0.06 0.703,-0.06 0.377,0 0.624,0.079 0.772,0.188 0.149,0.108 0.229,0.276 0.229,0.515 0,0.326 -0.218,0.524 -0.485,0.604 v 0.021 c 0.218,0.039 0.366,0.237 0.416,0.604 0.06,0.387 0.118,0.535 0.158,0.614 h -0.416 c -0.06,-0.079 -0.119,-0.307 -0.168,-0.634 -0.06,-0.316 -0.218,-0.436 -0.535,-0.436 h -0.277 v 1.069 z m 0,-1.377 h 0.287 c 0.327,0 0.604,-0.118 0.604,-0.426 0,-0.218 -0.158,-0.436 -0.604,-0.436 -0.129,0 -0.218,0.01 -0.287,0.021 z"
             id="path1642"
             inkscape:connector-curvature="0"
             style="fill:#73ba25;stroke-width:1.43255806" />
        </g>
      </g>
      <path
         style="fill:#000000;fill-rule:evenodd;stroke:#000000;stroke-width:0.31553599px;stroke-linecap:butt;stroke-linejoin:miter;stroke-opacity:1"
         d="m -125.31491,-134.77711 c -1.18487,-0.96167 -2.8901,0.54834 -3.75998,1.96441 0,0 0.26521,0.24113 0.35298,0.27624 0.61658,-1.05725 1.93657,-2.75515 3.29957,-2.20995 0.0627,0.0634 0.11315,0.072 0.16882,0.10743 -0.0205,-0.0461 -0.0494,-0.0883 -0.0614,-0.13813 z"
         id="path1648"
         inkscape:connector-curvature="0"
         sodipodi:nodetypes="ccccccc" />
      <path
         style="fill:none;fill-rule:evenodd;stroke:#73ba25;stroke-width:0.31553599px;stroke-linecap:butt;stroke-linejoin:miter;stroke-opacity:1"
         d="m -126.22706,-134.46526 c 0.42504,-0.21634 0.93299,-0.0975 1.33064,0.11413"
         id="path1650"
         inkscape:connector-curvature="0" />
      <path
         style="fill:#d40000;fill-rule:evenodd;stroke:#d40000;stroke-width:0.37590697px;stroke-linecap:butt;stroke-linejoin:miter;stroke-opacity:1"
         d="m -128.43885,-133.417 c -1.2578,-0.63172 -2.29513,0.38005 -2.75617,1.28871 1.12207,0.46126 2.55259,-0.0408 2.75617,-1.28871 z"
         id="path1652"
         inkscape:connector-curvature="0" />
      <path
         inkscape:connector-curvature="0"
         id="path1654"
         d="m -128.41431,-133.36269 c -1.40018,0.14367 -1.73079,1.55449 -1.63094,2.56852 1.19408,-0.21441 2.13026,-1.4069 1.63094,-2.56852 z"
         style="fill:#d40000;fill-rule:evenodd;stroke:#d40000;stroke-width:0.37590697px;stroke-linecap:butt;stroke-linejoin:miter;stroke-opacity:1" />
      <path
         style="fill:#d40000;fill-rule:evenodd;stroke:#d40000;stroke-width:0.37590697px;stroke-linecap:butt;stroke-linejoin:miter;stroke-opacity:1"
         d="m -128.28259,-133.30793 c -1.05681,0.92967 -0.50718,2.27042 0.16268,3.03821 0.84793,-0.86765 0.91815,-2.38209 -0.16268,-3.03821 z"
         id="path1656"
         inkscape:connector-curvature="0" />
      <path
         style="fill:#6da741;fill-opacity:1;fill-rule:evenodd;stroke:none;stroke-width:0.16836886px;stroke-linecap:butt;stroke-linejoin:miter;stroke-opacity:1"
         d="m -126.42811,-134.59864 c -0.45693,0.56897 -0.0567,1.20477 0.35385,1.53721 0.35574,-0.5187 0.25663,-1.29844 -0.35385,-1.53721 z"
         id="path1658"
         inkscape:connector-curvature="0" />
    </g>
  </g>
</svg>
